<svg width="100" height="98" viewBox="0 0 100 98" fill="none" xmlns="http://www.w3.org/2000/svg">
<g clip-path="url(#clip0_23_156)" filter="url(#filter0_d_23_156)">
<path d="M60.2156 43.3151L51.1378 51.9802L12.8034 88.5661C11.797 89.5289 10.506 90.0103 9.21497 90.0103C7.80196 90.0103 6.38894 89.4367 5.36222 88.2998C3.33927 86.0669 3.60358 82.5743 5.93149 80.6692L51.1378 43.8272L56.1189 39.7712L60.2156 43.3151Z" fill="url(#paint0_linear_23_156)"/>
<path d="M50.7413 52.4206L41.8058 60.9423L40.9824 52.185L45.872 48.2007L50.7413 52.4206Z" fill="#3A81D6" fill-opacity="0.8"/>
<path d="M95.978 29.9078C95.978 46.4288 82.6815 59.8259 66.2946 59.8259C55.9664 59.8259 46.8682 54.5101 41.5516 46.4391C38.4308 41.7071 36.6111 36.0225 36.6111 29.9078C36.6111 13.3868 49.9077 0 66.2946 0C73.6951 0 80.4552 2.72448 85.6498 7.23114C91.9728 12.7211 95.978 20.8433 95.978 29.9078Z" fill="url(#paint1_linear_23_156)"/>
<path d="M66.2946 53.2093C79.0671 53.2093 89.4213 42.7768 89.4213 29.9078C89.4213 17.0387 79.0671 6.60632 66.2946 6.60632C53.5221 6.60632 43.1679 17.0387 43.1679 29.9078C43.1679 42.7768 53.5221 53.2093 66.2946 53.2093Z" fill="white"/>
<path opacity="0.06" d="M95.978 29.9078C95.978 46.4288 82.6815 59.8259 66.2946 59.8259C55.9664 59.8259 46.8682 54.5101 41.5516 46.4391C75.0268 43.6941 83.8505 15.1178 85.66 7.23114C91.9728 12.7211 95.978 20.8433 95.978 29.9078Z" fill="#1A6FB5" fill-opacity="0.5"/>
<path d="M66.2946 29.959C68.9783 29.959 71.1537 27.7672 71.1537 25.0632C71.1537 22.3592 68.9783 20.1673 66.2946 20.1673C63.6109 20.1673 61.4354 22.3592 61.4354 25.0632C61.4354 27.7672 63.6007 29.959 66.2946 29.959ZM66.2946 32.407C63.0518 32.407 56.5763 34.0458 56.5763 37.3028V38.5319C56.5763 39.2079 57.1252 39.761 57.7962 39.761H74.8133C75.4842 39.761 76.0332 39.2079 76.0332 38.5319V37.3028C76.0128 34.056 69.5374 32.407 66.2946 32.407Z" fill="url(#paint2_linear_23_156)"/>
</g>
<defs>
<filter id="filter0_d_23_156" x="0" y="0" width="99.978" height="98" filterUnits="userSpaceOnUse" color-interpolation-filters="sRGB">
<feFlood flood-opacity="0" result="BackgroundImageFix"/>
<feColorMatrix in="SourceAlpha" type="matrix" values="0 0 0 0 0 0 0 0 0 0 0 0 0 0 0 0 0 0 127 0" result="hardAlpha"/>
<feOffset dy="4"/>
<feGaussianBlur stdDeviation="2"/>
<feComposite in2="hardAlpha" operator="out"/>
<feColorMatrix type="matrix" values="0 0 0 0 0 0 0 0 0 0 0 0 0 0 0 0 0 0 0.25 0"/>
<feBlend mode="normal" in2="BackgroundImageFix" result="effect1_dropShadow_23_156"/>
<feBlend mode="normal" in="SourceGraphic" in2="effect1_dropShadow_23_156" result="shape"/>
</filter>
<linearGradient id="paint0_linear_23_156" x1="9.67475" y1="84.3265" x2="57.9244" y2="40.7922" gradientUnits="userSpaceOnUse">
<stop stop-color="#67C3F3"/>
<stop offset="1" stop-color="#5A98F2"/>
</linearGradient>
<linearGradient id="paint1_linear_23_156" x1="54.0173" y1="2.11336" x2="76.7818" y2="52.9053" gradientUnits="userSpaceOnUse">
<stop stop-color="#67C3F3"/>
<stop offset="1" stop-color="#5A98F2"/>
</linearGradient>
<linearGradient id="paint2_linear_23_156" x1="59.2686" y1="28.3947" x2="76.9196" y2="36.9391" gradientUnits="userSpaceOnUse">
<stop stop-color="#B0F4FF"/>
<stop offset="0.071077" stop-color="#A6F1FF"/>
<stop offset="0.2937" stop-color="#8BE8FD"/>
<stop offset="0.5209" stop-color="#78E1FD"/>
<stop offset="0.7536" stop-color="#6DDDFC"/>
<stop offset="1" stop-color="#69DCFC"/>
</linearGradient>
<clipPath id="clip0_23_156">
<rect width="91.978" height="90" fill="white" transform="translate(4)"/>
</clipPath>
</defs>
</svg>
